<svg xmlns="http://www.w3.org/2000/svg" width="256" height="256" viewBox="0 0 100 100"><rect width="100" height="100" rx="20" fill="#121212"></rect><path d="M42.94 76.66L28.73 76.66L37.99 23.34L51.84 23.38Q58.36 23.38 63.06 26.64Q67.77 29.90 69.82 35.63Q71.87 41.36 71.03 48.46L71.03 48.46L70.66 51.14Q69.05 62.78 61.61 69.72Q54.18 76.66 42.94 76.66L42.94 76.66ZM52.02 29.16L43.85 29.13L36.60 70.91L43.38 70.95Q51.14 70.95 56.54 66.11Q61.94 61.28 63.56 52.86L63.56 52.86Q64.84 46.12 64.43 41.39L64.43 41.39Q63.88 35.72 60.66 32.51Q57.44 29.31 52.02 29.16L52.02 29.16Z" fill="#e0e0e0"></path></svg>